<svg xmlns="http://www.w3.org/2000/svg" width="512" height="512" fill="none">
  <path d="M256 512c141.385 0 256-114.615 256-256S397.385 0 256 0 0 114.615 0 256s114.615 256 256 256Zm99.556-298.944c5.774 10-1.443 22.5-12.99 22.5H169.695c-11.547 0-18.763-12.5-12.99-22.5l86.435-149.71c5.774-10 20.208-10 25.981 0l86.435 149.71Zm-198.851 84.621c-5.773-10 1.444-22.5 12.991-22.5h172.87c11.547 0 18.764 12.5 12.99 22.5l-86.435 149.71c-5.773 10-20.207 10-25.981 0l-86.435-149.71Z" clip-rule="evenodd"/>
  <style>
    path { fill: #0A0A0A; }
    @media (prefers-color-scheme: dark) {
      path { fill: #F2F2F2; }
    }
  </style>
</svg>
