<svg width="512" height="512" viewBox="0 0 512 512" fill="none" xmlns="http://www.w3.org/2000/svg">
  <path fill-rule="evenodd" clip-rule="evenodd" d="M256 512C397.385 512 512 397.385 512 256C512 114.615 397.385 0 256 0C114.615 0 0 114.615 0 256C0 397.385 114.615 512 256 512ZM355.556 213.056C361.33 223.056 354.113 235.556 342.566 235.556H169.695C158.148 235.556 150.932 223.056 156.705 213.056L243.14 63.346C248.914 53.346 263.348 53.3461 269.121 63.3461L355.556 213.056ZM156.705 297.677C150.932 287.677 158.149 275.177 169.696 275.177H342.566C354.113 275.177 361.33 287.677 355.556 297.677L269.121 447.387C263.348 457.387 248.914 457.387 243.14 447.387L156.705 297.677Z" fill="black"/>
</svg>
