<svg width="911" height="196" viewBox="0 0 911 196" fill="none" xmlns="http://www.w3.org/2000/svg">
<g clip-path="url(#clip0_9_8)">
<path fill-rule="evenodd" clip-rule="evenodd" d="M71.5 169.5C110.988 169.5 143 137.488 143 98C143 58.5116 110.988 26.5 71.5 26.5C32.0116 26.5 0 58.5116 0 98C0 137.488 32.0116 169.5 71.5 169.5ZM99.3057 86.0059C100.918 88.7989 98.9026 92.2901 95.6776 92.2901H47.3954C44.1704 92.2901 42.1547 88.7989 43.7673 86.0059L67.9083 44.1923C69.5208 41.3994 73.5522 41.3994 75.1647 44.1924L99.3057 86.0059ZM43.7673 109.64C42.1547 106.847 44.1704 103.356 47.3954 103.356H95.6776C98.9026 103.356 100.918 106.847 99.3057 109.64L75.1647 151.454C73.5521 154.247 69.5208 154.247 67.9083 151.454L43.7673 109.64Z" fill="#F2F2F2"/>
<path d="M239.45 158.225C232.15 158.225 225.75 156.875 220.25 154.175C214.75 151.375 210.5 147.525 207.5 142.625C204.5 137.625 203 131.825 203 125.225V105.725C203 99.025 204.5 93.225 207.5 88.325C210.5 83.425 214.75 79.625 220.25 76.925C225.75 74.125 232.15 72.725 239.45 72.725C250.35 72.725 259.05 75.475 265.55 80.975C272.05 86.475 275.5 93.975 275.9 103.475H253.4C253.1 99.975 251.7 97.225 249.2 95.225C246.8 93.225 243.55 92.225 239.45 92.225C234.95 92.225 231.5 93.375 229.1 95.675C226.7 97.975 225.5 101.325 225.5 105.725V125.225C225.5 129.525 226.7 132.875 229.1 135.275C231.5 137.575 234.95 138.725 239.45 138.725C243.55 138.725 246.8 137.775 249.2 135.875C251.7 133.875 253.1 131.075 253.4 127.475H275.9C275.5 136.975 272.05 144.475 265.55 149.975C259.05 155.475 250.35 158.225 239.45 158.225Z" fill="#F2F2F2"/>
<path d="M328.941 158.225C321.641 158.225 315.291 156.875 309.891 154.175C304.491 151.375 300.291 147.525 297.291 142.625C294.391 137.625 292.941 131.825 292.941 125.225V105.725C292.941 99.125 294.391 93.375 297.291 88.475C300.291 83.475 304.491 79.625 309.891 76.925C315.291 74.125 321.641 72.725 328.941 72.725C336.341 72.725 342.691 74.125 347.991 76.925C353.391 79.625 357.541 83.475 360.441 88.475C363.441 93.375 364.941 99.125 364.941 105.725V125.225C364.941 131.825 363.441 137.625 360.441 142.625C357.541 147.525 353.391 151.375 347.991 154.175C342.691 156.875 336.341 158.225 328.941 158.225ZM328.941 138.725C333.341 138.725 336.691 137.575 338.991 135.275C341.291 132.875 342.441 129.525 342.441 125.225V105.725C342.441 101.325 341.291 97.975 338.991 95.675C336.691 93.375 333.341 92.225 328.941 92.225C324.641 92.225 321.291 93.375 318.891 95.675C316.591 97.975 315.441 101.325 315.441 105.725V125.225C315.441 129.525 316.591 132.875 318.891 135.275C321.291 137.575 324.641 138.725 328.941 138.725Z" fill="#F2F2F2"/>
<path d="M384.383 156.725V136.325H412.883V94.475H388.133V74.225H433.883V136.325H457.883V156.725H384.383ZM421.883 61.175C417.783 61.175 414.483 60.125 411.983 58.025C409.583 55.925 408.383 53.075 408.383 49.475C408.383 45.875 409.583 43.025 411.983 40.925C414.483 38.825 417.783 37.775 421.883 37.775C425.983 37.775 429.233 38.825 431.633 40.925C434.133 43.025 435.383 45.875 435.383 49.475C435.383 53.075 434.133 55.925 431.633 58.025C429.233 60.125 425.983 61.175 421.883 61.175Z" fill="#F2F2F2"/>
<path d="M473.724 156.725V74.225H495.474V89.975H502.074L495.474 95.225C495.474 88.225 497.474 82.725 501.474 78.725C505.474 74.725 510.874 72.725 517.674 72.725C525.674 72.725 532.074 75.525 536.874 81.125C541.774 86.725 544.224 94.175 544.224 103.475V156.725H521.724V105.725C521.724 101.425 520.574 98.125 518.274 95.825C516.074 93.425 512.924 92.225 508.824 92.225C504.824 92.225 501.724 93.425 499.524 95.825C497.324 98.125 496.224 101.425 496.224 105.725V156.725H473.724Z" fill="#F2F2F2"/>
<path d="M566.066 156.725V74.225H587.066V89.975H592.766L586.316 99.575C586.316 90.675 588.366 83.975 592.466 79.475C596.566 74.975 602.566 72.725 610.466 72.725C619.566 72.725 626.616 75.475 631.616 80.975C636.716 86.475 639.266 94.225 639.266 104.225V110.975H615.266V105.725C615.266 101.225 614.016 97.725 611.516 95.225C609.116 92.725 605.866 91.475 601.766 91.475C597.466 91.475 594.166 92.725 591.866 95.225C589.666 97.725 588.566 101.225 588.566 105.725V156.725H566.066Z" fill="#F2F2F2"/>
<path d="M678.057 158.225C669.757 158.225 663.157 155.975 658.257 151.475C653.457 146.975 651.057 140.875 651.057 133.175C651.057 124.875 653.907 118.525 659.607 114.125C665.407 109.625 673.707 107.375 684.507 107.375H701.607V101.225C701.607 98.025 700.457 95.475 698.157 93.575C695.957 91.675 692.957 90.725 689.157 90.725C685.657 90.725 682.757 91.525 680.457 93.125C678.157 94.725 676.757 96.925 676.257 99.725H654.507C655.407 91.425 659.007 84.875 665.307 80.075C671.707 75.175 679.907 72.725 689.907 72.725C700.407 72.725 708.707 75.325 714.807 80.525C721.007 85.625 724.107 92.525 724.107 101.225V156.725H702.357V143.225H698.757L702.507 137.975C702.507 144.175 700.257 149.125 695.757 152.825C691.357 156.425 685.457 158.225 678.057 158.225ZM686.457 141.725C690.857 141.725 694.457 140.575 697.257 138.275C700.157 135.875 701.607 132.775 701.607 128.975V120.125H684.957C681.557 120.125 678.807 121.125 676.707 123.125C674.607 125.025 673.557 127.575 673.557 130.775C673.557 134.175 674.707 136.875 677.007 138.875C679.307 140.775 682.457 141.725 686.457 141.725Z" fill="#F2F2F2"/>
<path d="M743.548 156.725V74.225H765.298V89.975H771.898L765.298 95.225C765.298 88.225 767.298 82.725 771.298 78.725C775.298 74.725 780.698 72.725 787.498 72.725C795.498 72.725 801.898 75.525 806.698 81.125C811.598 86.725 814.048 94.175 814.048 103.475V156.725H791.548V105.725C791.548 101.425 790.398 98.125 788.098 95.825C785.898 93.425 782.748 92.225 778.648 92.225C774.648 92.225 771.548 93.425 769.348 95.825C767.148 98.125 766.048 101.425 766.048 105.725V156.725H743.548Z" fill="#F2F2F2"/>
<path d="M833.94 156.725V47.225H856.44V105.425H867.54L884.79 74.225H909.84L886.89 114.575L910.29 156.725H884.79L867.39 124.325H856.44V156.725H833.94Z" fill="#F2F2F2"/>
</g>
<defs>
<clipPath id="clip0_9_8">
<rect width="910.29" height="195" fill="white" transform="translate(0 0.5)"/>
</clipPath>
</defs>
</svg>
